<?xml version="1.0" encoding="UTF-8"?>
<!--
  Icon sprite for personal-web (T111).
  Source: Bootstrap Icons (https://icons.getbootstrap.com/), MIT License.
  Copyright (c) 2019-2024 The Bootstrap Authors.
  License text: https://github.com/twbs/icons/blob/main/LICENSE.md
  Icons included: music-note-beamed, display, house-fill, gear, chevron-up,
  list-ul, skip-backward-fill, play-fill, pause-fill, skip-forward-fill,
  volume-up-fill, file-earmark-pdf. Each icon kept at its native viewBox
  (0 0 16 16) as shipped upstream.
-->
<svg xmlns="http://www.w3.org/2000/svg" style="display:none">
  <symbol id="icon-music" viewBox="0 0 16 16">
    <path d="M6 13c0 1.105-1.12 2-2.5 2S1 14.105 1 13s1.12-2 2.5-2 2.5.896 2.5 2m9-2c0 1.105-1.12 2-2.5 2s-2.5-.895-2.5-2 1.12-2 2.5-2 2.5.895 2.5 2"/>
  <path fill-rule="evenodd" d="M14 11V2h1v9zM6 3v10H5V3z"/>
  <path d="M5 2.905a1 1 0 0 1 .9-.995l8-.8a1 1 0 0 1 1.1.995V3L5 4z"/>
  </symbol>
  <symbol id="icon-display" viewBox="0 0 16 16">
    <path d="M0 4s0-2 2-2h12s2 0 2 2v6s0 2-2 2h-4q0 1 .25 1.5H11a.5.5 0 0 1 0 1H5a.5.5 0 0 1 0-1h.75Q6 13 6 12H2s-2 0-2-2zm1.398-.855a.76.76 0 0 0-.254.302A1.5 1.5 0 0 0 1 4.01V10c0 .325.078.502.145.602q.105.156.302.254a1.5 1.5 0 0 0 .538.143L2.01 11H14c.325 0 .502-.078.602-.145a.76.76 0 0 0 .254-.302 1.5 1.5 0 0 0 .143-.538L15 9.99V4c0-.325-.078-.502-.145-.602a.76.76 0 0 0-.302-.254A1.5 1.5 0 0 0 13.99 3H2c-.325 0-.502.078-.602.145"/>
  </symbol>
  <symbol id="icon-home" viewBox="0 0 16 16">
    <path d="M8.707 1.5a1 1 0 0 0-1.414 0L.646 8.146a.5.5 0 0 0 .708.708L8 2.207l6.646 6.647a.5.5 0 0 0 .708-.708L13 5.793V2.5a.5.5 0 0 0-.5-.5h-1a.5.5 0 0 0-.5.5v1.293z"/>
  <path d="m8 3.293 6 6V13.5a1.5 1.5 0 0 1-1.5 1.5h-9A1.5 1.5 0 0 1 2 13.5V9.293z"/>
  </symbol>
  <symbol id="icon-cog" viewBox="0 0 16 16">
    <path d="M8 4.754a3.246 3.246 0 1 0 0 6.492 3.246 3.246 0 0 0 0-6.492M5.754 8a2.246 2.246 0 1 1 4.492 0 2.246 2.246 0 0 1-4.492 0"/>
  <path d="M9.796 1.343c-.527-1.79-3.065-1.79-3.592 0l-.094.319a.873.873 0 0 1-1.255.52l-.292-.16c-1.64-.892-3.433.902-2.54 2.541l.159.292a.873.873 0 0 1-.52 1.255l-.319.094c-1.79.527-1.79 3.065 0 3.592l.319.094a.873.873 0 0 1 .52 1.255l-.16.292c-.892 1.64.901 3.434 2.541 2.54l.292-.159a.873.873 0 0 1 1.255.52l.094.319c.527 1.79 3.065 1.79 3.592 0l.094-.319a.873.873 0 0 1 1.255-.52l.292.16c1.64.893 3.434-.902 2.54-2.541l-.159-.292a.873.873 0 0 1 .52-1.255l.319-.094c1.79-.527 1.79-3.065 0-3.592l-.319-.094a.873.873 0 0 1-.52-1.255l.16-.292c.893-1.64-.902-3.433-2.541-2.54l-.292.159a.873.873 0 0 1-1.255-.52zm-2.633.283c.246-.835 1.428-.835 1.674 0l.094.319a1.873 1.873 0 0 0 2.693 1.115l.291-.16c.764-.415 1.6.42 1.184 1.185l-.159.292a1.873 1.873 0 0 0 1.116 2.692l.318.094c.835.246.835 1.428 0 1.674l-.319.094a1.873 1.873 0 0 0-1.115 2.693l.16.291c.415.764-.42 1.6-1.185 1.184l-.291-.159a1.873 1.873 0 0 0-2.693 1.116l-.094.318c-.246.835-1.428.835-1.674 0l-.094-.319a1.873 1.873 0 0 0-2.692-1.115l-.292.16c-.764.415-1.6-.42-1.184-1.185l.159-.291A1.873 1.873 0 0 0 1.945 8.93l-.319-.094c-.835-.246-.835-1.428 0-1.674l.319-.094A1.873 1.873 0 0 0 3.06 4.377l-.16-.292c-.415-.764.42-1.6 1.185-1.184l.292.159a1.873 1.873 0 0 0 2.692-1.115z"/>
  </symbol>
  <symbol id="icon-chevron-up" viewBox="0 0 16 16">
    <path fill-rule="evenodd" d="M7.646 4.646a.5.5 0 0 1 .708 0l6 6a.5.5 0 0 1-.708.708L8 5.707l-5.646 5.647a.5.5 0 0 1-.708-.708z"/>
  </symbol>
  <symbol id="icon-list-ul" viewBox="0 0 16 16">
    <path fill-rule="evenodd" d="M5 11.5a.5.5 0 0 1 .5-.5h9a.5.5 0 0 1 0 1h-9a.5.5 0 0 1-.5-.5m0-4a.5.5 0 0 1 .5-.5h9a.5.5 0 0 1 0 1h-9a.5.5 0 0 1-.5-.5m0-4a.5.5 0 0 1 .5-.5h9a.5.5 0 0 1 0 1h-9a.5.5 0 0 1-.5-.5m-3 1a1 1 0 1 0 0-2 1 1 0 0 0 0 2m0 4a1 1 0 1 0 0-2 1 1 0 0 0 0 2m0 4a1 1 0 1 0 0-2 1 1 0 0 0 0 2"/>
  </symbol>
  <symbol id="icon-backward" viewBox="0 0 16 16">
    <path d="M.5 3.5A.5.5 0 0 0 0 4v8a.5.5 0 0 0 1 0V8.753l6.267 3.636c.54.313 1.233-.066 1.233-.697v-2.94l6.267 3.636c.54.314 1.233-.065 1.233-.696V4.308c0-.63-.693-1.01-1.233-.696L8.5 7.248v-2.94c0-.63-.692-1.01-1.233-.696L1 7.248V4a.5.5 0 0 0-.5-.5"/>
  </symbol>
  <symbol id="icon-play" viewBox="0 0 16 16">
    <path d="m11.596 8.697-6.363 3.692c-.54.313-1.233-.066-1.233-.697V4.308c0-.63.692-1.01 1.233-.696l6.363 3.692a.802.802 0 0 1 0 1.393"/>
  </symbol>
  <symbol id="icon-pause" viewBox="0 0 16 16">
    <path d="M5.5 3.5A1.5 1.5 0 0 1 7 5v6a1.5 1.5 0 0 1-3 0V5a1.5 1.5 0 0 1 1.5-1.5m5 0A1.5 1.5 0 0 1 12 5v6a1.5 1.5 0 0 1-3 0V5a1.5 1.5 0 0 1 1.5-1.5"/>
  </symbol>
  <symbol id="icon-forward" viewBox="0 0 16 16">
    <path d="M15.5 3.5a.5.5 0 0 1 .5.5v8a.5.5 0 0 1-1 0V8.753l-6.267 3.636c-.54.313-1.233-.066-1.233-.697v-2.94l-6.267 3.636C.693 12.703 0 12.324 0 11.693V4.308c0-.63.693-1.01 1.233-.696L7.5 7.248v-2.94c0-.63.693-1.01 1.233-.696L15 7.248V4a.5.5 0 0 1 .5-.5"/>
  </symbol>
  <symbol id="icon-volume-up" viewBox="0 0 16 16">
    <path d="M11.536 14.01A8.47 8.47 0 0 0 14.026 8a8.47 8.47 0 0 0-2.49-6.01l-.708.707A7.48 7.48 0 0 1 13.025 8c0 2.071-.84 3.946-2.197 5.303z"/>
  <path d="M10.121 12.596A6.48 6.48 0 0 0 12.025 8a6.48 6.48 0 0 0-1.904-4.596l-.707.707A5.48 5.48 0 0 1 11.025 8a5.48 5.48 0 0 1-1.61 3.89z"/>
  <path d="M8.707 11.182A4.5 4.5 0 0 0 10.025 8a4.5 4.5 0 0 0-1.318-3.182L8 5.525A3.5 3.5 0 0 1 9.025 8 3.5 3.5 0 0 1 8 10.475zM6.717 3.55A.5.5 0 0 1 7 4v8a.5.5 0 0 1-.812.39L3.825 10.5H1.5A.5.5 0 0 1 1 10V6a.5.5 0 0 1 .5-.5h2.325l2.363-1.89a.5.5 0 0 1 .529-.06"/>
  </symbol>
  <symbol id="icon-file-pdf" viewBox="0 0 16 16">
    <path d="M14 14V4.5L9.5 0H4a2 2 0 0 0-2 2v12a2 2 0 0 0 2 2h8a2 2 0 0 0 2-2M9.5 3A1.5 1.5 0 0 0 11 4.5h2V14a1 1 0 0 1-1 1H4a1 1 0 0 1-1-1V2a1 1 0 0 1 1-1h5.5z"/>
  <path d="M4.603 14.087a.8.8 0 0 1-.438-.42c-.195-.388-.13-.776.08-1.102.198-.307.526-.568.897-.787a7.7 7.7 0 0 1 1.482-.645 20 20 0 0 0 1.062-2.227 7.3 7.3 0 0 1-.43-1.295c-.086-.4-.119-.796-.046-1.136.075-.354.274-.672.65-.823.192-.077.4-.12.602-.077a.7.7 0 0 1 .477.365c.088.164.12.356.127.538.007.188-.012.396-.047.614-.084.51-.27 1.134-.52 1.794a11 11 0 0 0 .98 1.686 5.8 5.8 0 0 1 1.334.05c.364.066.734.195.96.465.12.144.193.32.2.518.007.192-.047.382-.138.563a1.04 1.04 0 0 1-.354.416.86.86 0 0 1-.51.138c-.331-.014-.654-.196-.933-.417a5.7 5.7 0 0 1-.911-.95 11.7 11.7 0 0 0-1.997.406 11.3 11.3 0 0 1-1.02 1.51c-.292.35-.609.656-.927.787a.8.8 0 0 1-.58.029m1.379-1.901q-.25.115-.459.238c-.328.194-.541.383-.647.547-.094.145-.096.25-.04.361q.016.032.026.044l.035-.012c.137-.056.355-.235.635-.572a8 8 0 0 0 .45-.606m1.64-1.33a13 13 0 0 1 1.01-.193 12 12 0 0 1-.51-.858 21 21 0 0 1-.5 1.05zm2.446.45q.226.245.435.41c.24.19.407.253.498.256a.1.1 0 0 0 .07-.015.3.3 0 0 0 .094-.125.44.44 0 0 0 .059-.2.1.1 0 0 0-.026-.063c-.052-.062-.2-.152-.518-.209a4 4 0 0 0-.612-.053zM8.078 7.8a7 7 0 0 0 .2-.828q.046-.282.038-.465a.6.6 0 0 0-.032-.198.5.5 0 0 0-.145.04c-.087.035-.158.106-.196.283-.04.192-.03.469.046.822q.036.167.09.346z"/>
  </symbol>
</svg>
